<svg id="Layer_1" data-name="Layer 1" xmlns="http://www.w3.org/2000/svg" xmlns:xlink="http://www.w3.org/1999/xlink" viewBox="0 0 3763 3806"><defs><style>.cls-1{fill:none;}.cls-2{clip-path:url(#clip-path);}.cls-3{fill:#00d3e9;}.cls-4{fill:#11b7da;}.cls-5{fill:#229ccc;}.cls-6{fill:#3380bd;}.cls-7{fill:#4464ae;}.cls-8{fill:#5549a0;}.cls-9{fill:#662d91;}</style><clipPath id="clip-path" transform="translate(779 947)"><rect class="cls-1" x="-2" width="2000" height="2000"/></clipPath></defs><g class="cls-2"><path class="cls-3" d="M358,1319.68c258.92-291.84,613.35-492.85,989.47-608.41S2121.6,562,2515.63,568.85c47.86.84,96.86,2.49,141.34,19.87,57.42,22.45,101.47,68.85,138.93,117.13a996.7,996.7,0,0,1,171.2,338.28c25.32,89.34,30.57,201.55-44.47,257.83-89.92,67.43-235.11,7.9-324.17,76.42-92.65,71.28-60.49,230.14-147.42,308.07-69.88,62.65-188.65,46.32-257.05,110.53-80.36,75.42-50.59,222.76-135.59,293.1-71,58.75-188.16,33.32-258,93.39-76.43,65.76-67.76,210.35-163.8,242.9-44.88,15.21-96.22-3-141,12.54-85.53,29.63-90.89,154.05-165,205.39-88,61-209-13.52-315.8.66-108.71,14.44-180.51,115.92-275.32,170.1-150.78,86.17-355.68,38.66-479.39-82.15-153.57-150-190.22-376.23-170-579.87,10.2-102.65,37.74-202.11,37.88-305.74.1-70.92.72-136,25.44-203.84C197.22,1523.26,273.11,1415.33,358,1319.68Z" transform="translate(779 947)"/><path class="cls-4" d="M201.57,1039.62c247.16-281.14,585.5-474.78,944.53-586.1s739-143.84,1115.13-137.2c45.69.81,92.47,2.4,134.92,19.14C2451,357.09,2493,401.78,2528.78,448.3a963.67,963.67,0,0,1,163.43,325.87c24.16,86.07,29.17,194.16-42.46,248.37-85.84,65-224.43,7.62-309.45,73.63-88.44,68.66-57.74,221.7-140.72,296.77-66.71,60.35-180.08,44.62-245.38,106.48-76.71,72.65-48.29,214.59-129.43,282.35-67.76,56.6-179.61,32.1-246.27,90-73,63.35-64.69,202.64-156.36,234-42.84,14.65-91.85-2.87-134.59,12.07-81.64,28.55-86.76,148.4-157.51,197.86-84,58.76-199.54-13-301.46.64-103.77,13.9-172.31,111.67-262.82,163.87-143.92,83-339.52,37.23-457.61-79.14C-38.45,2256.56-73.44,2038.6-54.14,1842.42c9.73-98.89,36-194.7,36.16-294.52.09-68.33.69-131,24.29-196.37C48.12,1235.74,120.56,1131.76,201.57,1039.62Z" transform="translate(779 947)"/><path class="cls-5" d="M45.17,759.56C280.58,489.12,602.81,302.85,944.76,195.77S1648.6,57.4,2006.84,63.79c43.51.78,88.06,2.3,128.5,18.41,52.2,20.8,92.26,63.8,126.32,108.54a930.88,930.88,0,0,1,155.65,313.47c23,82.79,27.79,186.78-40.44,238.92-81.75,62.49-213.75,7.33-294.73,70.83-84.23,66-55,213.26-134,285.47-63.54,58.06-171.51,42.93-233.7,102.43-73.06,69.89-46,206.42-123.28,271.61-64.54,54.44-171.07,30.87-234.55,86.54-69.48,60.93-61.61,194.93-148.93,225.09-40.8,14.09-87.47-2.76-128.18,11.62-77.75,27.45-82.63,142.75-150,190.32-80.06,56.52-190.05-12.53-287.12.61C543.52,2001,478.24,2095.07,392,2145.29,255,2225.13,68.67,2181.1-43.8,2069.16c-139.63-139-172.95-348.64-154.57-537.35,9.27-95.13,34.31-187.29,34.44-283.32.09-65.72.65-126,23.13-188.89C-101,948.21-32,848.19,45.17,759.56Z" transform="translate(779 947)"/><path class="cls-6" d="M-111.22,479.5C112.42,219.76,418.56,40.86,743.43-62s668.68-132.88,1009-126.75c41.34.74,83.67,2.21,122.09,17.68,49.59,20,87.64,61.28,120,104.25a897.44,897.44,0,0,1,147.88,301.07c21.86,79.51,26.4,179.38-38.42,229.46-77.67,60-203.07,7-280,68-80,63.44-52.25,204.83-127.33,274.18-60.36,55.76-162.94,41.23-222,98.37-69.41,67.13-43.69,198.26-117.11,260.87-61.32,52.28-162.53,29.65-222.84,83.12-66,58.52-58.53,187.21-141.49,216.18-38.76,13.54-83.11-2.65-121.78,11.16-73.87,26.37-78.5,137.1-142.52,182.79-76,54.29-180.55-12-272.77.59-93.9,12.85-155.91,103.17-237.81,151.4-130.23,76.68-307.21,34.4-414.06-73.12-132.66-133.48-164.31-334.85-146.85-516.09,8.8-91.36,32.59-179.88,32.72-272.11.08-63.12.62-121.05,22-181.42C-250.07,660.69-184.52,564.63-111.22,479.5Z" transform="translate(779 947)"/><path class="cls-7" d="M-267.62,199.44C-55.74-49.6,234.3-221.13,542.09-319.74s633.52-127.41,956-121.53c39.16.71,79.27,2.12,115.66,16.95,47,19.16,83,58.75,113.7,99.95A865,865,0,0,1,1867.51-35.7c20.71,76.24,25,172-36.4,220-73.58,57.55-192.39,6.75-265.28,65.22-75.82,60.83-49.5,196.38-120.63,262.88-57.19,53.47-154.38,39.53-210.36,94.32-65.75,64.37-41.39,190.1-110.95,250.12-58.09,50.13-154,28.43-211.12,79.7-62.54,56.11-55.46,179.5-134,207.27-36.72,13-78.74-2.53-115.37,10.7-70,25.29-74.38,131.45-135,175.26-72.06,52.06-171.05-11.53-258.43.57-89,12.32-147.71,98.92-225.3,145.16-123.39,73.53-291.06,33-392.3-70.11-125.68-128-155.67-321.05-139.12-494.83,8.34-87.59,30.88-172.46,31-260.89.09-60.52.6-116.07,20.82-173.95C-399.17,373.16-337.07,281.06-267.62,199.44Z" transform="translate(779 947)"/><path class="cls-8" d="M-424-80.62C-223.9-319,50.05-483.12,340.75-577.49S939.11-699.43,1243.66-693.8c37,.68,74.86,2,109.24,16.23,44.38,18.33,78.43,56.22,107.38,95.65a832.23,832.23,0,0,1,132.33,276.26c19.57,73,23.62,164.6-34.38,210.56-69.5,55.07-181.71,6.46-250.55,62.42-71.61,58.21-46.76,187.94-113.94,251.59-54,51.16-145.81,37.83-198.68,90.26C933,370.77,956,491.1,890.26,548.54c-54.87,48-145.43,27.21-199.4,76.28-59.07,53.7-52.38,171.78-126.61,198.37-34.68,12.42-74.37-2.43-109,10.23-66.1,24.2-70.25,125.81-127.53,167.74-68.06,49.81-161.56-11-244.09.54-84,11.79-139.52,94.67-212.8,138.92C-245.67,1211-404,1172.18-499.66,1073.53c-118.7-122.48-147-307.26-131.4-473.57,7.87-83.83,29.16-165.06,29.27-249.69.08-57.92.56-111.08,19.67-166.47C-548.27,85.64-489.61-2.51-424-80.62Z" transform="translate(779 947)"/><path class="cls-9" d="M-580.42-360.68C-392-588.32-134.21-745.11,139.41-835.25s563.2-116.46,849.85-111.08c34.82.65,70.47,1.93,102.83,15.5,41.77,17.5,73.82,53.69,101.07,91.35,56.87,78.59,99.39,168.67,124.55,263.86,18.42,69.69,22.24,157.22-32.36,201.11-65.41,52.6-171,6.17-235.83,59.62-67.4,55.59-44,179.5-107.24,240.29C891.44-25.73,805-38.47,755.27,11.61c-58.46,58.83-36.8,173.76-98.64,228.63C605,286.06,519.75,266.22,469,313.08c-55.6,51.29-49.3,164.08-119.17,189.47-32.65,11.86-70-2.32-102.57,9.78-62.21,23.11-66.12,120.15-120,160.2-64.05,47.58-152.06-10.55-229.74.52-79.08,11.26-131.32,90.42-200.29,132.68-109.69,67.21-258.76,30.15-348.75-64.08C-763.34,624.67-790,448.19-775.29,289.34c7.41-80.07,27.44-157.64,27.55-238.47.07-55.32.53-106.09,18.51-159C-697.36-201.89-642.15-286.08-580.42-360.68Z" transform="translate(779 947)"/></g></svg>